<?xml version="1.0" encoding="utf-8"?>
<!-- Generator: Adobe Illustrator 25.2.0, SVG Export Plug-In . SVG Version: 6.00 Build 0)  -->
<svg version="1.1" id="Layer_1" xmlns="http://www.w3.org/2000/svg" xmlns:xlink="http://www.w3.org/1999/xlink" x="0px" y="0px"
	 viewBox="0 0 178.53 50.4" style="enable-background:new 0 0 178.53 50.4;" xml:space="preserve">
<style type="text/css">
	.st0{fill:#1D2F42;}
	.st1{fill:#4FAF4A;}
</style>
<g>
	<g>
		<path class="st0" d="M171.11,3.83V3.81c0-1.52,1.22-2.8,2.79-2.8c1.56,0,2.78,1.28,2.78,2.79v0.02c0,1.52-1.22,2.8-2.79,2.8
			C172.32,6.62,171.11,5.34,171.11,3.83z M176.35,3.81V3.8c0-1.36-1.06-2.48-2.45-2.48c-1.41,0-2.47,1.13-2.47,2.5v0.02
			c0,1.36,1.05,2.47,2.46,2.47C175.29,6.3,176.35,5.18,176.35,3.81z M172.38,3.79V3.77c0-0.83,0.65-1.53,1.57-1.53
			c0.62,0,0.98,0.24,1.25,0.61l-0.62,0.48c-0.16-0.21-0.36-0.35-0.64-0.35c-0.42,0-0.7,0.35-0.7,0.78v0.02
			c0,0.43,0.28,0.77,0.7,0.77c0.31,0,0.48-0.15,0.66-0.35l0.62,0.45c-0.28,0.39-0.65,0.66-1.29,0.66
			C173.04,5.31,172.38,4.65,172.38,3.79z"/>
	</g>
	<g>
		<path class="st1" d="M62.24,40.23c-0.23-0.07-0.45-0.13-0.68-0.2c-0.22-0.07-0.42-0.15-0.58-0.24c-0.16-0.09-0.24-0.22-0.24-0.38
			c0-0.17,0.07-0.31,0.22-0.4c0.14-0.09,0.32-0.14,0.52-0.14c0.44,0,0.74,0.18,0.89,0.53l0.6-0.34c-0.13-0.27-0.33-0.48-0.59-0.63
			c-0.26-0.15-0.56-0.23-0.9-0.23c-0.42,0-0.77,0.12-1.05,0.35c-0.28,0.23-0.42,0.53-0.42,0.89c0,0.28,0.08,0.5,0.24,0.68
			c0.16,0.18,0.35,0.3,0.58,0.37c0.23,0.07,0.45,0.14,0.68,0.2c0.22,0.07,0.42,0.15,0.58,0.25c0.16,0.1,0.24,0.22,0.24,0.38
			c0,0.19-0.08,0.33-0.23,0.43c-0.15,0.09-0.35,0.14-0.59,0.14c-0.25,0-0.47-0.06-0.65-0.17c-0.18-0.12-0.31-0.27-0.37-0.47
			l-0.62,0.36c0.12,0.29,0.33,0.53,0.61,0.7c0.29,0.18,0.63,0.26,1.03,0.26c0.45,0,0.82-0.11,1.11-0.34
			c0.29-0.23,0.43-0.53,0.43-0.9c0-0.29-0.08-0.52-0.24-0.71C62.66,40.43,62.47,40.3,62.24,40.23z"/>
		<path class="st1" d="M68.37,38.2c-0.58,0-1.01,0.23-1.3,0.7c-0.25-0.47-0.66-0.7-1.22-0.7c-0.54,0-0.95,0.22-1.23,0.66v-0.55H63.9
			v4.14h0.72v-2.3c0-0.42,0.1-0.73,0.3-0.94c0.2-0.21,0.45-0.31,0.76-0.31c0.27,0,0.48,0.09,0.64,0.26
			c0.16,0.18,0.24,0.43,0.24,0.75v2.55h0.72v-2.3c0-0.43,0.09-0.74,0.28-0.95c0.18-0.21,0.43-0.31,0.74-0.31
			c0.28,0,0.5,0.09,0.66,0.26c0.17,0.18,0.25,0.43,0.25,0.75v2.55h0.72v-2.58c0-0.51-0.14-0.92-0.43-1.22
			C69.21,38.35,68.84,38.2,68.37,38.2z"/>
		<path class="st1" d="M74.36,39.02c-0.36-0.55-0.88-0.82-1.56-0.82c-0.58,0-1.07,0.21-1.48,0.63c-0.41,0.42-0.61,0.94-0.61,1.54
			c0,0.61,0.2,1.12,0.61,1.54c0.41,0.42,0.9,0.63,1.48,0.63c0.68,0,1.21-0.27,1.56-0.82v0.71h0.72v-4.14h-0.72V39.02z M73.93,41.44
			c-0.28,0.28-0.63,0.43-1.05,0.43c-0.41,0-0.76-0.14-1.04-0.43c-0.28-0.28-0.42-0.64-0.42-1.06c0-0.42,0.14-0.77,0.42-1.06
			c0.28-0.28,0.63-0.43,1.04-0.43c0.42,0,0.77,0.14,1.05,0.43c0.28,0.28,0.42,0.64,0.42,1.06C74.36,40.8,74.22,41.15,73.93,41.44z"
			/>
		<path class="st1" d="M76.89,39.01v-0.7h-0.72v4.14h0.72v-2.19c0-0.45,0.13-0.78,0.38-0.99c0.25-0.2,0.56-0.3,0.91-0.28v-0.75
			C77.56,38.24,77.13,38.49,76.89,39.01z"/>
		<path class="st1" d="M80.13,37.15l-0.72,0.22v0.94h-0.82v0.7h0.82v2.24c0,0.51,0.15,0.86,0.44,1.05c0.29,0.18,0.75,0.24,1.38,0.15
			v-0.65c-0.24,0.01-0.45,0.02-0.61,0.01c-0.17,0-0.29-0.05-0.37-0.13c-0.08-0.09-0.12-0.23-0.12-0.43v-2.24h1.1v-0.7h-1.1V37.15z"
			/>
		<path class="st1" d="M83.82,38.2c-0.64,0-1.16,0.21-1.56,0.62c-0.4,0.41-0.6,0.93-0.6,1.56c0,0.63,0.21,1.15,0.62,1.56
			c0.41,0.41,0.94,0.62,1.6,0.62c0.81,0,1.42-0.31,1.82-0.94l-0.61-0.35c-0.25,0.4-0.65,0.6-1.19,0.6c-0.39,0-0.72-0.1-0.99-0.31
			c-0.27-0.2-0.44-0.49-0.51-0.86h3.47c0.02-0.11,0.02-0.22,0.02-0.32c0-0.6-0.19-1.12-0.58-1.54C84.92,38.42,84.42,38.2,83.82,38.2
			z M82.38,40.08c0.06-0.36,0.22-0.66,0.47-0.87c0.25-0.22,0.57-0.33,0.96-0.33c0.33,0,0.62,0.1,0.87,0.31
			c0.25,0.2,0.4,0.5,0.46,0.89H82.38z"/>
		<path class="st1" d="M87.42,39.01v-0.7H86.7v4.14h0.72v-2.19c0-0.45,0.13-0.78,0.38-0.99c0.25-0.2,0.56-0.3,0.91-0.28v-0.75
			C88.09,38.24,87.66,38.49,87.42,39.01z"/>
		<polygon class="st1" points="95.46,41.46 94.49,38.31 93.78,38.31 92.8,41.46 91.89,38.31 91.14,38.31 92.36,42.45 93.13,42.45 
			94.11,39.35 95.1,42.45 95.83,42.45 97.04,38.31 96.36,38.31 		"/>
		<path class="st1" d="M101.12,39.02c-0.36-0.55-0.88-0.82-1.56-0.82c-0.58,0-1.07,0.21-1.48,0.63c-0.41,0.42-0.61,0.94-0.61,1.54
			c0,0.61,0.2,1.12,0.61,1.54c0.41,0.42,0.9,0.63,1.48,0.63c0.68,0,1.21-0.27,1.56-0.82v0.71h0.72v-4.14h-0.72V39.02z M100.7,41.44
			c-0.28,0.28-0.63,0.43-1.05,0.43c-0.41,0-0.76-0.14-1.04-0.43c-0.28-0.28-0.42-0.64-0.42-1.06c0-0.42,0.14-0.77,0.42-1.06
			c0.28-0.28,0.63-0.43,1.04-0.43c0.42,0,0.77,0.14,1.05,0.43c0.28,0.28,0.42,0.64,0.42,1.06C101.12,40.8,100.98,41.15,100.7,41.44z
			"/>
		<path class="st1" d="M104.6,41.49l-1.38-3.17h-0.77l1.8,4.12l-0.08,0.16c-0.24,0.6-0.61,0.89-1.11,0.85v0.67
			c0.41,0.03,0.78-0.08,1.1-0.33c0.32-0.25,0.56-0.6,0.74-1.07l1.69-4.4h-0.77L104.6,41.49z"/>
		<path class="st1" d="M110.42,37.15l-0.72,0.22v0.94h-0.82v0.7h0.82v2.24c0,0.51,0.15,0.86,0.44,1.05
			c0.29,0.18,0.75,0.24,1.38,0.15v-0.65c-0.24,0.01-0.45,0.02-0.61,0.01c-0.17,0-0.29-0.05-0.37-0.13
			c-0.08-0.09-0.12-0.23-0.12-0.43v-2.24h1.1v-0.7h-1.1V37.15z"/>
		<path class="st1" d="M114.11,38.2c-0.61,0-1.12,0.21-1.54,0.63c-0.42,0.42-0.63,0.94-0.63,1.55c0,0.61,0.21,1.13,0.63,1.55
			c0.42,0.42,0.94,0.63,1.54,0.63c0.61,0,1.12-0.21,1.55-0.63c0.42-0.42,0.64-0.94,0.64-1.55c0-0.61-0.21-1.13-0.64-1.55
			C115.23,38.41,114.71,38.2,114.11,38.2z M115.15,41.43c-0.28,0.28-0.63,0.42-1.04,0.42c-0.41,0-0.75-0.14-1.03-0.42
			s-0.42-0.63-0.42-1.05c0-0.42,0.14-0.77,0.42-1.05s0.63-0.42,1.03-0.42c0.41,0,0.76,0.14,1.04,0.42c0.28,0.28,0.42,0.63,0.42,1.05
			C115.57,40.8,115.43,41.15,115.15,41.43z"/>
		<path class="st1" d="M121.34,40.23c-0.23-0.07-0.45-0.13-0.68-0.2c-0.22-0.07-0.42-0.15-0.58-0.24c-0.16-0.09-0.24-0.22-0.24-0.38
			c0-0.17,0.07-0.31,0.22-0.4c0.14-0.09,0.32-0.14,0.52-0.14c0.44,0,0.74,0.18,0.89,0.53l0.6-0.34c-0.13-0.27-0.33-0.48-0.59-0.63
			c-0.26-0.15-0.56-0.23-0.9-0.23c-0.42,0-0.77,0.12-1.05,0.35c-0.28,0.23-0.42,0.53-0.42,0.89c0,0.28,0.08,0.5,0.24,0.68
			c0.16,0.18,0.35,0.3,0.58,0.37c0.23,0.07,0.45,0.14,0.68,0.2c0.22,0.07,0.42,0.15,0.58,0.25c0.16,0.1,0.24,0.22,0.24,0.38
			c0,0.19-0.08,0.33-0.23,0.43c-0.15,0.09-0.35,0.14-0.59,0.14c-0.25,0-0.47-0.06-0.65-0.17c-0.18-0.12-0.31-0.27-0.37-0.47
			l-0.62,0.36c0.12,0.29,0.33,0.53,0.61,0.7s0.63,0.26,1.03,0.26c0.45,0,0.82-0.11,1.11-0.34c0.29-0.23,0.43-0.53,0.43-0.9
			c0-0.29-0.08-0.52-0.24-0.71C121.76,40.43,121.56,40.3,121.34,40.23z"/>
		<path class="st1" d="M125.02,38.2c-0.6,0-1.05,0.23-1.34,0.7v-2.25h-0.72v5.8h0.72v-2.19c0-0.46,0.11-0.81,0.33-1.03
			c0.22-0.22,0.51-0.34,0.87-0.34c0.32,0,0.57,0.09,0.75,0.28c0.18,0.19,0.27,0.45,0.27,0.78v2.5h0.72v-2.54
			c0-0.52-0.15-0.94-0.44-1.25C125.9,38.36,125.51,38.2,125.02,38.2z"/>
		<path class="st1" d="M129.57,38.2c-0.61,0-1.12,0.21-1.54,0.63c-0.42,0.42-0.63,0.94-0.63,1.55c0,0.61,0.21,1.13,0.63,1.55
			c0.42,0.42,0.94,0.63,1.54,0.63c0.61,0,1.12-0.21,1.55-0.63c0.42-0.42,0.64-0.94,0.64-1.55c0-0.61-0.21-1.13-0.64-1.55
			C130.7,38.41,130.18,38.2,129.57,38.2z M130.62,41.43c-0.28,0.28-0.63,0.42-1.04,0.42c-0.41,0-0.75-0.14-1.03-0.42
			s-0.42-0.63-0.42-1.05c0-0.42,0.14-0.77,0.42-1.05s0.63-0.42,1.03-0.42c0.41,0,0.76,0.14,1.04,0.42c0.28,0.28,0.42,0.63,0.42,1.05
			C131.04,40.8,130.9,41.15,130.62,41.43z"/>
		<path class="st1" d="M136.38,38.84c-0.41-0.42-0.9-0.63-1.48-0.63c-0.68,0-1.21,0.27-1.56,0.82v-0.71h-0.72v5.8h0.72v-2.37
			c0.36,0.55,0.88,0.82,1.56,0.82c0.58,0,1.07-0.21,1.48-0.63c0.41-0.42,0.61-0.94,0.61-1.54
			C136.99,39.77,136.79,39.26,136.38,38.84z M135.85,41.44c-0.28,0.28-0.63,0.43-1.04,0.43c-0.42,0-0.77-0.14-1.05-0.43
			c-0.28-0.28-0.42-0.64-0.42-1.06c0-0.42,0.14-0.77,0.42-1.06c0.28-0.28,0.63-0.43,1.05-0.43c0.41,0,0.76,0.14,1.04,0.43
			c0.28,0.28,0.42,0.64,0.42,1.06C136.27,40.8,136.13,41.15,135.85,41.44z"/>
	</g>
	<g>
		<path class="st0" d="M62.97,28.2c-2.09-2.03-3.11-4.63-3.11-7.8c0-3.2,1.06-5.83,3.17-7.89c2.14-2.08,4.71-3.11,7.74-3.11
			c3.8,0,7.22,1.74,9.08,4.37l-2.83,2.77c-1.66-2.03-3.65-3.06-6.02-3.06c-1.91,0-3.51,0.66-4.8,1.97
			c-1.29,1.29-1.94,2.94-1.94,4.94c0,1.94,0.63,3.54,1.91,4.83c1.29,1.29,2.88,1.91,4.8,1.91c2.45,0,4.51-1.03,6.14-3.08l2.91,2.66
			c-1.94,2.66-5.4,4.48-9.31,4.48C67.65,31.2,65.05,30.2,62.97,28.2z"/>
		<path class="st0" d="M94.07,15.32h3.82v15.57h-3.82v-1.8c-1.34,1.46-3,2.17-4.97,2.17c-2.23,0-4.08-0.77-5.54-2.34
			c-1.46-1.57-2.17-3.54-2.17-5.89s0.74-4.29,2.2-5.8c1.46-1.54,3.31-2.31,5.51-2.31c1.94,0,3.6,0.74,4.97,2.26V15.32z M92.87,19.92
			c-0.83-0.89-1.86-1.31-3.11-1.31c-1.28,0-2.31,0.43-3.14,1.31c-0.8,0.89-1.2,1.94-1.2,3.17c0,1.26,0.4,2.31,1.23,3.2
			c0.83,0.88,1.86,1.31,3.11,1.31c1.26,0,2.29-0.43,3.11-1.31c0.83-0.89,1.26-1.94,1.26-3.2C94.13,21.86,93.7,20.8,92.87,19.92z"/>
		<path class="st0" d="M101.53,30.89V15.32h3.85v2.08c0.94-1.68,2.37-2.51,4.28-2.51c0.63,0,1.26,0.12,1.89,0.34l-0.34,3.86
			c-0.66-0.2-1.28-0.31-1.86-0.31c-2.28,0-3.8,1.48-3.8,4.71v7.4H101.53z"/>
		<path class="st0" d="M125.95,29.97c-1.29,0.86-2.8,1.29-4.6,1.29c-3.57,0-5.43-2.11-5.43-6.14v-6.43h-2.54v-3.37h2.57V9.8h4v5.52
			h5.14v3.37h-5.14v6.17c0,1.83,0.74,2.74,2.2,2.74c0.77,0,1.66-0.26,2.6-0.8L125.95,29.97z"/>
		<path class="st0" d="M132.47,30.89h-4.03V9.17h4.03V30.89z"/>
		<path class="st0" d="M137.04,17.29c1.57-1.6,3.57-2.4,6-2.4s4.43,0.8,6,2.4c1.57,1.57,2.34,3.51,2.34,5.8
			c0,2.31-0.77,4.26-2.34,5.83c-1.57,1.57-3.57,2.37-6,2.37s-4.43-0.8-6-2.37c-1.57-1.57-2.34-3.51-2.34-5.83
			C134.7,20.8,135.47,18.86,137.04,17.29z M143.04,27.54c1.23,0,2.23-0.43,3.05-1.29c0.83-0.88,1.26-1.94,1.26-3.17
			s-0.43-2.28-1.26-3.14c-0.83-0.86-1.83-1.28-3.05-1.28s-2.25,0.43-3.08,1.28c-0.83,0.86-1.23,1.91-1.23,3.14s0.4,2.29,1.23,3.17
			C140.78,27.12,141.81,27.54,143.04,27.54z"/>
		<path class="st0" d="M157.44,30.86l-5.31-15.54h4.23l3.11,10.2l3.51-10.2h2.83l3.63,10.2l3.03-10.2h4.22l-5.25,15.54h-3.51
			l-3.51-9.74l-3.45,9.74H157.44z"/>
	</g>
	<path class="st1" d="M24.46,6.68c10.03,0,18.19,8.22,18.19,18.31h5.63c0-13.22-10.69-23.98-23.82-23.98
		c-13.12,0-23.81,10.76-23.81,23.98c0,13.23,10.68,23.99,23.81,23.99c2.13,0,4.23-0.29,6.25-0.84c3.42-0.93,6.6-2.62,9.31-4.99
		l0-0.01h0l-16.84-5.16l3.05,5.25c-0.58,0.06-1.17,0.08-1.76,0.08c-10.02,0-18.18-8.22-18.18-18.32
		C6.28,14.89,14.44,6.68,24.46,6.68z"/>
	<g>
		<path class="st0" d="M12.36,25c0-6.81,5.48-12.33,12.25-12.33S36.85,18.18,36.85,25H12.36z"/>
	</g>
</g>
</svg>
